<svg width="131" height="397" viewBox="0 0 131 397" fill="none" xmlns="http://www.w3.org/2000/svg">
<path d="M70.8374 396.19C101.039 396.19 125.522 390.867 125.522 384.301C125.522 377.735 101.039 372.413 70.8374 372.413C40.6358 372.413 16.1526 377.735 16.1526 384.301C16.1526 390.867 40.6358 396.19 70.8374 396.19Z" fill="#263238" stroke="#263238" stroke-linecap="round" stroke-linejoin="round"/>
<path d="M113.547 101.788C113.547 101.788 120.715 136.476 121.99 142.894C123.265 149.312 125.606 164.565 128.26 171.255C130.914 177.945 130.047 186.509 128.72 188.917C127.389 191.009 125.86 192.979 124.153 194.801L115.25 183.607C115.25 183.607 109.952 128.759 109.753 120.991C109.555 113.223 113.547 101.788 113.547 101.788Z" fill="white" stroke="#263238" stroke-linecap="round" stroke-linejoin="round"/>
<path d="M118.27 182.237C118.27 182.237 123.913 185.632 124.906 187.073C125.898 188.514 126.609 190.347 125.836 191.909C125.062 193.471 120.851 198.186 119.785 199.103C118.719 200.019 117.821 196.362 117.695 193.219C117.57 190.075 118.27 182.237 118.27 182.237Z" fill="white" stroke="#263238" stroke-linecap="round" stroke-linejoin="round"/>
<path d="M87.9232 372.453C87.9232 372.453 105.615 380.745 106.733 382.357C107.851 383.969 103.818 386.115 93.2736 386.115C82.7295 386.115 82.416 384.775 78.2256 383.707C74.0351 382.639 65.6856 383.435 64.557 381.027C63.4284 378.619 65.393 370.327 65.393 370.327L87.9232 372.453Z" fill="white" stroke="#263238" stroke-linecap="round" stroke-linejoin="round"/>
<path d="M64.4316 376.735C64.4316 376.735 79.0616 385.299 77.7762 388.241C76.4909 391.182 65.9155 391.182 60.3456 390.376C54.7758 389.57 42.9359 382.316 42.3089 379.677C41.6819 377.037 43.2494 372.987 51.8289 372.191C60.4083 371.395 64.4316 376.735 64.4316 376.735Z" fill="white" stroke="#263238" stroke-linecap="round" stroke-linejoin="round"/>
<path d="M108.844 236.803C108.844 236.803 100.484 298.875 99.0315 307.973C97.579 317.071 92.9705 331.518 90.4834 342.49C89.0739 348.943 88.0274 355.464 87.3484 362.025C87.0944 363.892 87.1402 365.784 87.4843 367.637C87.8396 370.317 87.8918 372.453 87.8918 372.453C84.1705 373.353 80.3837 373.98 76.564 374.327C71.8511 374.599 65.4661 374.599 65.4661 374.599L63.3761 357.21C63.3761 357.21 64.9332 331.518 65.8528 324.033C66.7724 316.547 67.7547 257.679 67.7129 256.067C67.6711 254.455 67.3053 240.279 67.3053 240.279L95.7816 237.337C95.7816 237.337 99.669 226.638 105.511 227.172C111.352 227.705 108.844 236.803 108.844 236.803Z" fill="white" stroke="#263238" stroke-linecap="round" stroke-linejoin="round"/>
<path d="M105.552 227.172C99.7108 226.638 95.8234 237.337 95.8234 237.337L67.3158 240.279C67.3158 240.279 67.4098 244.047 67.5039 247.916C70.5448 248.178 73.3559 248.329 75.7594 248.329C84.8929 248.315 94.0189 247.82 103.097 246.848L104.319 234.516L106.232 247.08L107.548 246.667C108.363 240.682 108.886 236.783 108.886 236.783C108.886 236.783 111.394 227.705 105.552 227.172Z" fill="#263238" stroke="#263238" stroke-linecap="round" stroke-linejoin="round"/>
<path d="M37.5751 238.677C37.5751 238.677 37.5751 239.06 37.6378 239.755C38.0244 247.07 40.3234 289.455 41.0236 297.273C41.8073 305.837 37.8886 315.197 38.0871 322.955C38.2857 330.712 40.1771 372.725 40.1771 372.725L42.2671 379.677C42.2671 379.677 47.1786 376.473 51.8916 376.473C56.6045 376.473 64.4316 376.735 64.4316 376.735C64.4316 376.735 64.8391 371.113 64.7973 369.249C64.7555 367.385 64.5779 360.685 64.5779 360.685C64.5779 360.685 72.5512 325.634 73.0319 322.693C73.5126 319.751 79.699 268.912 79.6572 267.28C79.6154 265.648 80.9635 242.929 80.9635 242.929L37.5751 238.677Z" fill="white" stroke="#263238" stroke-linecap="round" stroke-linejoin="round"/>
<path d="M80.6709 248.279C80.8485 245.176 80.9739 242.959 80.9739 242.959L37.5751 238.677C37.5751 238.677 37.5751 239.06 37.6378 239.755C37.6378 240.642 37.7527 242.042 37.8572 243.785C48.0042 245.538 65.6124 248.299 75.7594 248.299C77.4314 248.329 79.0616 248.309 80.6709 248.279Z" fill="#263238" stroke="#263238" stroke-linecap="round" stroke-linejoin="round"/>
<path d="M69.5521 74.3942C69.5521 74.3942 64.9645 75.1398 63.2194 77.1145C61.4704 79.0352 59.8971 81.0982 58.5169 83.2804C58.2765 84.0259 31.2946 99.8134 31.2946 99.8134L33.2383 175.094C33.2383 175.094 34.043 186.69 32.6113 190.64C30.193 198.405 29.0195 206.481 29.1315 214.588C29.3823 224.209 30.0302 239.775 30.0302 239.775C30.0302 239.775 60.9099 245.699 75.7594 245.699C84.8933 245.678 94.0193 245.177 103.097 244.198L104.319 231.856L106.179 244.45L112.522 242.435L117.747 205.158C117.747 205.158 121.384 197.259 121.342 195.526C121.3 193.793 122.262 191.577 121.206 190.096C120.151 188.614 118.27 185.652 118.27 185.652C118.27 185.652 113.547 104.015 113.547 101.788C113.547 99.5616 99.5749 86.4943 98.5404 86.0006C97.5058 85.5069 91.1313 76.3689 82.8654 73.9106C74.5994 71.4523 69.5521 74.3942 69.5521 74.3942Z" fill="white" stroke="#263238" stroke-linecap="round" stroke-linejoin="round"/>
<path d="M61.1398 85.7487L58.0466 112.861L70.7538 118.553L67.577 127.751L99.3555 181.592" stroke="#263238" stroke-linecap="round" stroke-linejoin="round"/>
<path d="M96.6385 88.7914L106.169 110.241L102.083 115.49L108.896 124.679L106.169 183.779" stroke="#263238" stroke-linecap="round" stroke-linejoin="round"/>
<path d="M68.3712 78.1018C68.603 83.3911 69.5983 88.6233 71.3286 93.6476C74.0769 101.053 92.2913 152.143 92.2913 152.143L104.068 192.121C104.068 192.121 102.511 151.397 102.47 149.675C102.428 147.952 93.5453 91.421 93.5453 91.421C93.5453 91.421 92.03 82.293 89.637 78.8373C87.2439 75.3816 71.2032 68.9638 68.3712 78.1018Z" fill="#286A8F" stroke="#263238" stroke-linecap="round" stroke-linejoin="round"/>
<path d="M67.2426 74.1524C67.2426 74.1524 59.8336 74.8879 61.1398 85.7488C62.4461 96.6096 64.1703 104.015 64.1703 104.015" stroke="#263238" stroke-width="2" stroke-linecap="round" stroke-linejoin="round"/>
<path d="M63.2612 118.331C63.2612 118.331 66.3962 130.915 68.5384 134.371C70.6807 137.826 77.1597 141.282 81.7681 141.282" stroke="#263238" stroke-linecap="round" stroke-linejoin="round"/>
<path d="M73.1678 115.369C73.1678 115.369 76.6163 129.928 77.191 132.648C77.7658 135.368 75.8639 140.537 72.6662 145.745" stroke="#263238" stroke-linecap="round" stroke-linejoin="round"/>
<path d="M71.7466 147.468C71.4176 147.294 71.1736 147.001 71.0679 146.654C70.9621 146.306 71.0033 145.933 71.1823 145.614L71.548 144.97C71.638 144.816 71.7589 144.68 71.9037 144.572C72.0486 144.463 72.2144 144.384 72.3915 144.338C72.5686 144.292 72.7534 144.28 72.9351 144.304C73.1169 144.328 73.2919 144.386 73.4499 144.476C73.7787 144.651 74.0231 144.943 74.1306 145.289C74.2381 145.636 74.2001 146.01 74.0247 146.33L73.6589 146.964C73.5688 147.12 73.4476 147.256 73.3022 147.366C73.1569 147.475 72.9903 147.556 72.8123 147.603C72.6343 147.65 72.4484 147.662 72.2654 147.639C72.0824 147.616 71.906 147.558 71.7466 147.468Z" fill="#263238"/>
<path d="M83.4819 141.554C83.4821 141.732 83.445 141.908 83.373 142.071C83.3009 142.235 83.1954 142.382 83.0627 142.506C82.93 142.629 82.7728 142.725 82.6007 142.788C82.4285 142.852 82.2448 142.881 82.0607 142.874H81.2979C80.9218 142.866 80.5641 142.716 80.3021 142.456C80.04 142.195 79.8947 141.846 79.8976 141.484C79.896 141.306 79.9318 141.131 80.0027 140.967C80.0736 140.804 80.1781 140.656 80.31 140.533C80.4419 140.409 80.5983 140.313 80.7699 140.25C80.9415 140.186 81.1247 140.157 81.3083 140.164H82.0712C82.4473 140.174 82.8046 140.325 83.0677 140.584C83.3309 140.844 83.4794 141.191 83.4819 141.554Z" fill="#263238"/>
<path d="M63.2821 119.319L61.5265 108.589C61.3305 107.482 61.5791 106.346 62.2217 105.41C62.8642 104.474 63.8525 103.809 64.9854 103.551C66.2062 103.284 67.487 103.483 68.5588 104.106C69.6306 104.73 70.4099 105.73 70.7329 106.896L73.7321 117.576" stroke="#263238" stroke-width="2" stroke-linecap="round" stroke-linejoin="round"/>
<path d="M104.59 126.57C107.105 126.327 108.909 123.864 108.618 121.068C108.328 118.272 106.053 116.202 103.538 116.445C101.022 116.688 99.2189 119.152 99.5094 121.948C99.7999 124.744 102.074 126.813 104.59 126.57Z" fill="white" stroke="#263238" stroke-linecap="round" stroke-linejoin="round"/>
<path d="M91.7374 78.6761C91.7374 78.6761 101.801 92.3277 105.009 120.155" stroke="#263238" stroke-width="2" stroke-linecap="round" stroke-linejoin="round"/>
<path d="M105.276 123.377C106.65 123.253 107.642 121.901 107.493 120.355C107.344 118.809 106.11 117.656 104.737 117.779C103.363 117.902 102.371 119.255 102.52 120.8C102.669 122.346 103.903 123.5 105.276 123.377Z" fill="white" stroke="#263238" stroke-linecap="round" stroke-linejoin="round"/>
<path d="M119.984 184.363C119.366 186.207 118.861 188.084 118.469 189.985C118.469 190.791 118.27 193.199 116.316 192.655C114.362 192.111 114.947 182.489 115.198 181.421C115.448 180.353 120.203 183.809 120.203 183.809" fill="white"/>
<path d="M119.984 184.363C119.366 186.207 118.861 188.084 118.469 189.985C118.469 190.791 118.27 193.199 116.316 192.655C114.362 192.111 114.947 182.489 115.198 181.421C115.448 180.353 120.203 183.809 120.203 183.809" stroke="#263238" stroke-linecap="round" stroke-linejoin="round"/>
<path d="M56.5523 175.839C58.2905 176.762 60.2326 177.27 62.2162 177.32C65.2885 177.32 70.9001 176.313 72.9588 176.827C75.0174 177.341 80.2738 183.728 80.2738 183.728C80.2738 183.728 81.8413 185.209 81.0993 185.955C80.3574 186.7 78.8421 187.97 77.7971 187.184C76.7521 186.398 71.5271 182.247 71.5271 182.247L58.3497 187.436L52.9366 184.715L56.5523 175.839Z" fill="white" stroke="#263238" stroke-linecap="round" stroke-linejoin="round"/>
<path d="M36.3733 98.0906C36.3733 98.0906 27.6894 99.0981 26.2159 101.294C24.7425 103.491 0.947836 153.866 1.00009 156.092C1.05234 158.319 48.5789 194.377 48.5789 194.377L58.8408 175.547L33.1652 152.596L44.3049 127.671" fill="white"/>
<path d="M36.3733 98.0906C36.3733 98.0906 27.6894 99.0981 26.2159 101.294C24.7425 103.491 0.947836 153.866 1.00009 156.092C1.05234 158.319 48.5789 194.377 48.5789 194.377L58.8408 175.547L33.1652 152.596L44.3049 127.671" stroke="#263238" stroke-linecap="round" stroke-linejoin="round"/>
<path d="M52.3932 203.475L77.4941 203.969L77.3687 188.917" stroke="#263238" stroke-linecap="round" stroke-linejoin="round"/>
<path d="M58.381 187.436L51.7453 189.824" stroke="#263238" stroke-linecap="round" stroke-linejoin="round"/>
<path d="M65.9468 63.5334C65.9468 63.5334 68.7997 85.0133 70.6807 88.2171C72.5617 91.421 85.9377 104.257 85.9377 104.257C85.9377 104.257 90.1177 89.4563 90.5879 86.0006C91.0582 82.5449 91.4239 68.722 91.4239 68.722L65.8946 61.8105L65.9468 63.5334Z" fill="white" stroke="#263238" stroke-linecap="round" stroke-linejoin="round"/>
<path d="M65.9468 63.5334C65.9468 63.5334 66.2812 66.0521 66.7933 69.4877C68.7942 71.284 71.0803 72.7602 73.5649 73.8603C76.8566 75.2607 85.6346 76.0465 91.1836 75.4219C91.3299 71.8049 91.4239 68.722 91.4239 68.722L65.8946 61.8105L65.9468 63.5334Z" fill="#263238" stroke="#263238" stroke-linecap="round" stroke-linejoin="round"/>
<path d="M58.5482 44.7838C58.5482 44.7838 55.1311 41.3281 53.4382 45.2674C51.7453 49.2067 55.5282 55.1409 57.545 55.3928C58.7417 55.5432 59.9576 55.4575 61.1189 55.1409C61.1189 55.1409 62.5506 60.8232 63.8673 62.546C66.4587 65.7052 69.7794 68.2374 73.5649 69.9411C78.2256 71.9561 93.8274 72.6714 95.8025 69.9411C97.7775 67.2107 97.6626 52.6624 97.6312 51.4333C97.5999 50.2041 97.3804 32.6132 97.3804 32.6132C97.3804 32.6132 98.7807 26.5078 96.8788 22.3065C94.9769 18.1052 75.8848 12.2315 71.0882 14.6595C66.2917 17.0876 60.7636 21.3191 60.3874 26.7495C60.0112 32.18 60.2411 41.0661 60.2411 41.0661L58.5482 44.7838Z" fill="white" stroke="#263238" stroke-linecap="round" stroke-linejoin="round"/>
<path d="M86.7632 37.1268C86.7632 37.1268 89.9505 51.2318 89.219 52.9244C88.4875 54.617 86.1989 54.6472 83.3356 53.1662C80.4723 51.6852 81.9667 49.7105 81.9667 49.7105" stroke="#263238" stroke-linecap="round" stroke-linejoin="round"/>
<path d="M75.6653 53.4181C75.6653 53.4181 77.0447 57.1156 79.605 57.3675C82.1652 57.6193 88.592 58.1029 88.592 58.1029" stroke="#263238" stroke-linecap="round" stroke-linejoin="round"/>
<path d="M66.5216 37.6205L66.9291 43.5446C66.9291 43.5446 69.2699 44.7838 74.6412 44.7838C80.0125 44.7838 81.7786 43.5446 81.7786 43.5446L81.6323 37.6205C81.6323 37.6205 73.8366 33.1774 66.5216 37.6205Z" stroke="#263238" stroke-linecap="round" stroke-linejoin="round"/>
<path d="M86.7841 37.6205L88.7278 43.7965C88.7278 43.7965 89.522 44.804 94.9038 44.804C100.286 44.804 102.052 43.5647 102.052 43.5647L101.895 37.6406C101.895 37.6406 94.0887 33.1774 86.7841 37.6205Z" stroke="#263238" stroke-linecap="round" stroke-linejoin="round"/>
<path d="M81.6636 37.6205H86.7841" stroke="#263238" stroke-linecap="round" stroke-linejoin="round"/>
<path d="M66.5529 37.6205L56.4582 43.3028" stroke="#263238" stroke-linecap="round" stroke-linejoin="round"/>
<path d="M69.04 34.6584C69.04 34.6584 71.7779 31.6964 77.9852 34.1647" stroke="#263238" stroke-linecap="round" stroke-linejoin="round"/>
<path d="M87.7246 34.6584C88.6464 33.9454 89.7584 33.498 90.9325 33.3678C92.1065 33.2377 93.2948 33.4302 94.3604 33.9229" stroke="#263238" stroke-linecap="round" stroke-linejoin="round"/>
<path d="M75.5817 40.3407C75.5817 41.4288 75.1742 42.3557 74.6099 42.3557C74.0456 42.3557 73.5649 41.4691 73.5649 40.3407C73.5649 39.2123 73.9724 38.3257 74.5472 38.3257C75.1219 38.3257 75.5608 39.2426 75.5817 40.3407Z" fill="#263238"/>
<path d="M91.9673 40.0889C91.9673 41.177 91.5598 42.1039 90.9955 42.1039C90.4312 42.1039 89.9505 41.2173 89.9505 40.0889C89.9505 38.9605 90.358 38.0739 90.9223 38.0739C91.4866 38.0739 91.936 39.0008 91.9673 40.0889Z" fill="#263238"/>
<path d="M74.4322 17.2589C74.4322 17.2589 76.8984 22.508 73.8366 24.4222C72.8917 24.9493 71.8194 25.2269 70.7277 25.2269C69.636 25.2269 68.5637 24.9493 67.6188 24.4222C68.4329 25.5063 68.8875 26.8025 68.9229 28.1405C68.9584 29.4784 68.573 30.7953 67.8174 31.918C66.3164 34.3292 64.5658 36.5874 62.5924 38.6582C62.5924 38.6582 63.1462 45.0357 61.9967 45.7812C60.8472 46.5268 57.7122 45.4084 57.66 43.5345C57.6077 41.6605 56.3537 37.9126 56.3015 36.0387C56.2492 34.1647 55.3505 29.2884 55.3505 29.2884C55.3505 29.2884 47.4921 25.9133 51.6617 21.7926C55.8312 17.672 64.6824 14.2968 64.6824 14.2968C64.6824 14.2968 64.8809 6.80104 70.2627 4.55432C75.6444 2.30759 87.223 -1.06753 87.3171 2.68037C87.4644 4.60921 87.105 6.54273 86.2721 8.30222C86.2721 8.30222 95.9802 7.92944 102.752 14.3472C109.523 20.765 109.293 26.7193 105.793 26.7193C102.292 26.7193 101.153 27.4649 101.153 27.4649C101.153 27.4649 107.851 31.2128 104.403 33.0867C100.954 34.9607 97.4013 32.7139 97.4013 32.7139C97.4013 32.7139 98.8852 30.0944 94.5171 26.6689C90.149 23.2434 74.4322 17.2589 74.4322 17.2589Z" fill="#263238" stroke="#263238" stroke-linecap="round" stroke-linejoin="round"/>
</svg>
